<svg xmlns="http://www.w3.org/2000/svg" xmlns:xlink="http://www.w3.org/1999/xlink" width="500" zoomAndPan="magnify" viewBox="0 0 375 374.999991" height="500" preserveAspectRatio="xMidYMid meet" version="1.0"><defs><clipPath id="27f02f9563"><path d="M 37.5 44.886719 L 330 44.886719 L 330 167 L 37.5 167 Z M 37.5 44.886719 " clip-rule="nonzero"/></clipPath><clipPath id="1923d3eeeb"><path d="M 37.5 119.886719 L 37.5 262.5 C 37.5 303.921875 71.078125 337.5 112.5 337.5 L 255.113281 337.5 C 296.535156 337.5 330.113281 303.921875 330.113281 262.5 L 330.113281 119.886719 C 330.113281 99.992188 322.214844 80.917969 308.148438 66.851562 C 294.082031 52.785156 275.007812 44.886719 255.113281 44.886719 L 112.5 44.886719 C 71.078125 44.886719 37.5 78.464844 37.5 119.886719 Z M 37.5 119.886719 " clip-rule="nonzero"/></clipPath><clipPath id="b5821d830e"><path d="M 37.5 126 L 298 126 L 298 307 L 37.5 307 Z M 37.5 126 " clip-rule="nonzero"/></clipPath><clipPath id="e96f096188"><path d="M 37.5 119.886719 L 37.5 262.5 C 37.5 303.921875 71.078125 337.5 112.5 337.5 L 255.113281 337.5 C 296.535156 337.5 330.113281 303.921875 330.113281 262.5 L 330.113281 119.886719 C 330.113281 99.992188 322.214844 80.917969 308.148438 66.851562 C 294.082031 52.785156 275.007812 44.886719 255.113281 44.886719 L 112.5 44.886719 C 71.078125 44.886719 37.5 78.464844 37.5 119.886719 Z M 37.5 119.886719 " clip-rule="nonzero"/></clipPath><clipPath id="44f90a7757"><path d="M 37.5 165 L 330 165 L 330 297 L 37.5 297 Z M 37.5 165 " clip-rule="nonzero"/></clipPath><clipPath id="8164b768be"><path d="M 37.5 119.886719 L 37.5 262.5 C 37.5 303.921875 71.078125 337.5 112.5 337.5 L 255.113281 337.5 C 296.535156 337.5 330.113281 303.921875 330.113281 262.5 L 330.113281 119.886719 C 330.113281 99.992188 322.214844 80.917969 308.148438 66.851562 C 294.082031 52.785156 275.007812 44.886719 255.113281 44.886719 L 112.5 44.886719 C 71.078125 44.886719 37.5 78.464844 37.5 119.886719 Z M 37.5 119.886719 " clip-rule="nonzero"/></clipPath><clipPath id="0707362ced"><path d="M 37.5 199 L 330 199 L 330 337.386719 L 37.5 337.386719 Z M 37.5 199 " clip-rule="nonzero"/></clipPath><clipPath id="9169a35911"><path d="M 37.5 119.886719 L 37.5 262.5 C 37.5 303.921875 71.078125 337.5 112.5 337.5 L 255.113281 337.5 C 296.535156 337.5 330.113281 303.921875 330.113281 262.5 L 330.113281 119.886719 C 330.113281 99.992188 322.214844 80.917969 308.148438 66.851562 C 294.082031 52.785156 275.007812 44.886719 255.113281 44.886719 L 112.5 44.886719 C 71.078125 44.886719 37.5 78.464844 37.5 119.886719 Z M 37.5 119.886719 " clip-rule="nonzero"/></clipPath><clipPath id="da97679e38"><path d="M 66 85 L 316 85 L 316 337.386719 L 66 337.386719 Z M 66 85 " clip-rule="nonzero"/></clipPath><clipPath id="b7b78a1385"><path d="M 37.5 119.886719 L 37.5 262.5 C 37.5 303.921875 71.078125 337.5 112.5 337.5 L 255.113281 337.5 C 296.535156 337.5 330.113281 303.921875 330.113281 262.5 L 330.113281 119.886719 C 330.113281 99.992188 322.214844 80.917969 308.148438 66.851562 C 294.082031 52.785156 275.007812 44.886719 255.113281 44.886719 L 112.5 44.886719 C 71.078125 44.886719 37.5 78.464844 37.5 119.886719 Z M 37.5 119.886719 " clip-rule="nonzero"/></clipPath><clipPath id="06ee45116e"><path d="M 133 207 L 211 207 L 211 281 L 133 281 Z M 133 207 " clip-rule="nonzero"/></clipPath><clipPath id="2741edb31c"><path d="M 37.5 119.886719 L 37.5 262.5 C 37.5 303.921875 71.078125 337.5 112.5 337.5 L 255.113281 337.5 C 296.535156 337.5 330.113281 303.921875 330.113281 262.5 L 330.113281 119.886719 C 330.113281 99.992188 322.214844 80.917969 308.148438 66.851562 C 294.082031 52.785156 275.007812 44.886719 255.113281 44.886719 L 112.5 44.886719 C 71.078125 44.886719 37.5 78.464844 37.5 119.886719 Z M 37.5 119.886719 " clip-rule="nonzero"/></clipPath><clipPath id="16ded23763"><path d="M 166 181 L 208 181 L 208 225 L 166 225 Z M 166 181 " clip-rule="nonzero"/></clipPath><clipPath id="c937403c6a"><path d="M 37.5 119.886719 L 37.5 262.5 C 37.5 303.921875 71.078125 337.5 112.5 337.5 L 255.113281 337.5 C 296.535156 337.5 330.113281 303.921875 330.113281 262.5 L 330.113281 119.886719 C 330.113281 99.992188 322.214844 80.917969 308.148438 66.851562 C 294.082031 52.785156 275.007812 44.886719 255.113281 44.886719 L 112.5 44.886719 C 71.078125 44.886719 37.5 78.464844 37.5 119.886719 Z M 37.5 119.886719 " clip-rule="nonzero"/></clipPath><clipPath id="c9beee9ca2"><path d="M 142 104 L 209 104 L 209 200 L 142 200 Z M 142 104 " clip-rule="nonzero"/></clipPath><clipPath id="0e913b9ae7"><path d="M 37.5 119.886719 L 37.5 262.5 C 37.5 303.921875 71.078125 337.5 112.5 337.5 L 255.113281 337.5 C 296.535156 337.5 330.113281 303.921875 330.113281 262.5 L 330.113281 119.886719 C 330.113281 99.992188 322.214844 80.917969 308.148438 66.851562 C 294.082031 52.785156 275.007812 44.886719 255.113281 44.886719 L 112.5 44.886719 C 71.078125 44.886719 37.5 78.464844 37.5 119.886719 Z M 37.5 119.886719 " clip-rule="nonzero"/></clipPath><clipPath id="df939e2462"><path d="M 159 178 L 180 178 L 180 183 L 159 183 Z M 159 178 " clip-rule="nonzero"/></clipPath><clipPath id="8c78e306b4"><path d="M 37.5 119.886719 L 37.5 262.5 C 37.5 303.921875 71.078125 337.5 112.5 337.5 L 255.113281 337.5 C 296.535156 337.5 330.113281 303.921875 330.113281 262.5 L 330.113281 119.886719 C 330.113281 99.992188 322.214844 80.917969 308.148438 66.851562 C 294.082031 52.785156 275.007812 44.886719 255.113281 44.886719 L 112.5 44.886719 C 71.078125 44.886719 37.5 78.464844 37.5 119.886719 Z M 37.5 119.886719 " clip-rule="nonzero"/></clipPath><clipPath id="adc4234b75"><path d="M 159 168 L 177 168 L 177 174 L 159 174 Z M 159 168 " clip-rule="nonzero"/></clipPath><clipPath id="98f9a6388c"><path d="M 37.5 119.886719 L 37.5 262.5 C 37.5 303.921875 71.078125 337.5 112.5 337.5 L 255.113281 337.5 C 296.535156 337.5 330.113281 303.921875 330.113281 262.5 L 330.113281 119.886719 C 330.113281 99.992188 322.214844 80.917969 308.148438 66.851562 C 294.082031 52.785156 275.007812 44.886719 255.113281 44.886719 L 112.5 44.886719 C 71.078125 44.886719 37.5 78.464844 37.5 119.886719 Z M 37.5 119.886719 " clip-rule="nonzero"/></clipPath><clipPath id="247342e0df"><path d="M 169 136 L 200 136 L 200 152 L 169 152 Z M 169 136 " clip-rule="nonzero"/></clipPath><clipPath id="e382ccab0c"><path d="M 37.5 119.886719 L 37.5 262.5 C 37.5 303.921875 71.078125 337.5 112.5 337.5 L 255.113281 337.5 C 296.535156 337.5 330.113281 303.921875 330.113281 262.5 L 330.113281 119.886719 C 330.113281 99.992188 322.214844 80.917969 308.148438 66.851562 C 294.082031 52.785156 275.007812 44.886719 255.113281 44.886719 L 112.5 44.886719 C 71.078125 44.886719 37.5 78.464844 37.5 119.886719 Z M 37.5 119.886719 " clip-rule="nonzero"/></clipPath><clipPath id="63af9868b5"><path d="M 146 138 L 163 138 L 163 148 L 146 148 Z M 146 138 " clip-rule="nonzero"/></clipPath><clipPath id="96538ca6b7"><path d="M 37.5 119.886719 L 37.5 262.5 C 37.5 303.921875 71.078125 337.5 112.5 337.5 L 255.113281 337.5 C 296.535156 337.5 330.113281 303.921875 330.113281 262.5 L 330.113281 119.886719 C 330.113281 99.992188 322.214844 80.917969 308.148438 66.851562 C 294.082031 52.785156 275.007812 44.886719 255.113281 44.886719 L 112.5 44.886719 C 71.078125 44.886719 37.5 78.464844 37.5 119.886719 Z M 37.5 119.886719 " clip-rule="nonzero"/></clipPath></defs><rect x="-37.5" width="450" fill="#ffffff" y="-37.499999" height="449.999989" fill-opacity="1"/><rect x="-37.5" width="450" fill="#ffffff" y="-37.499999" height="449.999989" fill-opacity="1"/><g clip-path="url(#27f02f9563)"><g clip-path="url(#1923d3eeeb)"><path fill="#afb076" d="M 330 166.761719 L 37.5 166.761719 L 37.5 77.386719 C 37.5 59.4375 52.050781 44.886719 70 44.886719 L 297.5 44.886719 C 315.449219 44.886719 330 59.4375 330 77.386719 Z M 330 166.761719 " fill-opacity="1" fill-rule="nonzero"/></g></g><g clip-path="url(#b5821d830e)"><g clip-path="url(#e96f096188)"><path fill="#737953" d="M 118.75 304.886719 L 37.5 210.878906 L 37.5 139.378906 C 47.65625 134.261719 61.875 130.199219 78.125 134.261719 C 110.625 142.386719 102.5 142.386719 143.125 150.511719 C 183.75 158.636719 224.375 126.136719 248.75 126.136719 C 273.125 126.136719 297.5 166.761719 297.5 166.761719 C 297.5 166.761719 118.75 322.839844 118.75 304.886719 Z M 118.75 304.886719 " fill-opacity="1" fill-rule="nonzero"/></g></g><g clip-path="url(#44f90a7757)"><g clip-path="url(#8164b768be)"><path fill="#485343" d="M 330 166.109375 L 330 199.261719 L 50.410156 296.328125 L 37.5 230.296875 L 37.5 210.878906 C 47.25 213.804688 65.042969 215.183594 86.25 199.261719 C 118.75 174.886719 159.375 174.886719 175.625 174.886719 C 191.632812 174.886719 233.394531 163.835938 330 166.109375 Z M 330 166.109375 " fill-opacity="1" fill-rule="nonzero"/></g></g><g clip-path="url(#0707362ced)"><g clip-path="url(#9169a35911)"><path fill="#8a472a" d="M 330 199.261719 L 330 304.886719 C 330 322.839844 315.457031 337.386719 297.5 337.386719 L 70 337.386719 C 52.042969 337.386719 37.5 322.839844 37.5 304.886719 L 37.5 230.296875 C 43.757812 234.847656 52.773438 239.886719 61.875 239.886719 C 78.125 239.886719 110.625 215.511719 151.25 215.511719 C 191.875 215.511719 265 199.261719 289.375 199.261719 Z M 330 199.261719 " fill-opacity="1" fill-rule="nonzero"/></g></g><g clip-path="url(#da97679e38)"><g clip-path="url(#b7b78a1385)"><path fill="#3e2723" d="M 315.050781 332.183594 C 309.929688 335.515625 303.917969 337.386719 297.5 337.386719 L 70 337.386719 C 68.617188 337.386719 67.320312 337.304688 66.019531 337.140625 C 74.304688 325.523438 82.675781 311.140625 86.25 296.761719 C 94.375 264.261719 135 248.011719 135 215.511719 C 135 183.011719 126.875 174.886719 135 134.261719 C 143.125 93.636719 167.5 85.511719 183.75 85.511719 C 208.125 85.511719 240.625 109.886719 240.625 158.636719 C 240.625 207.386719 240.625 223.636719 273.125 248.011719 C 293.4375 263.285156 307.414062 303.910156 315.050781 332.183594 Z M 315.050781 332.183594 " fill-opacity="1" fill-rule="nonzero"/></g></g><g clip-path="url(#06ee45116e)"><g clip-path="url(#2741edb31c)"><path fill="#ffa726" d="M 207.636719 213.128906 L 167.613281 207.652344 C 168.410156 214.007812 165.394531 220.238281 159.894531 223.527344 C 146.171875 231.75 137.089844 246.3125 137.089844 246.3125 C 137.089844 246.3125 122.984375 266.183594 149.40625 274.53125 C 175.835938 282.875 190.917969 281.386719 197.824219 277.113281 C 213.292969 267.558594 211.878906 226.617188 207.636719 213.128906 Z M 207.636719 213.128906 " fill-opacity="1" fill-rule="nonzero"/></g></g><g clip-path="url(#16ded23763)"><g clip-path="url(#c937403c6a)"><path fill="#fb8c00" d="M 204.730469 181.597656 L 166.175781 196.164062 L 167.613281 207.636719 C 167.613281 207.636719 166.6875 224.128906 175.691406 224.667969 C 188.453125 225.421875 207.636719 213.121094 207.636719 213.121094 C 205.394531 205.972656 200.039062 193.53125 204.730469 181.597656 Z M 204.730469 181.597656 " fill-opacity="1" fill-rule="nonzero"/></g></g><g clip-path="url(#c9beee9ca2)"><g clip-path="url(#0e913b9ae7)"><path fill="#ffa726" d="M 208.125 142.386719 C 206.070312 118.097656 193.199219 104.335938 170.019531 104.335938 C 155.441406 104.335938 147 111.746094 144.148438 122.316406 C 141.394531 132.554688 143.125 146.511719 143.125 150.511719 C 143.125 158.636719 142.46875 168.914062 148.820312 183.523438 C 148.820312 183.523438 157.066406 199.820312 168.492188 199.8125 C 187.820312 199.8125 197.789062 193.582031 203.0625 185.902344 C 209.238281 176.933594 209.480469 158.433594 208.125 142.386719 Z M 208.125 142.386719 " fill-opacity="1" fill-rule="nonzero"/></g></g><g clip-path="url(#df939e2462)"><g clip-path="url(#8c78e306b4)"><path fill="#fb8c00" d="M 159.554688 181.101562 C 157.644531 180.289062 161.179688 179.160156 162.300781 179.230469 C 163.421875 179.304688 164.542969 180.28125 165.664062 180.28125 C 166.785156 180.28125 168.132812 178.628906 169.628906 178.859375 C 171.125 179.085938 175.753906 180.507812 179.5 179.742188 C 181.296875 179.378906 176.136719 181.871094 171.34375 181.597656 C 166.558594 181.320312 167.230469 182.148438 165.582031 181.996094 C 163.949219 181.847656 160.730469 181.597656 159.554688 181.101562 Z M 159.554688 181.101562 " fill-opacity="1" fill-rule="nonzero"/></g></g><g clip-path="url(#adc4234b75)"><g clip-path="url(#98f9a6388c)"><path fill="#fb8c00" d="M 159.554688 168.75 C 159.554688 168.75 159.953125 172.195312 164.054688 171.925781 C 168.15625 171.660156 166.832031 169.027344 171.203125 170.34375 C 175.578125 171.660156 176.363281 169.277344 176.363281 169.277344 C 176.363281 169.277344 174.878906 173.730469 166.117188 173.761719 C 159.757812 173.796875 159.554688 168.75 159.554688 168.75 Z M 159.554688 168.75 " fill-opacity="1" fill-rule="nonzero"/></g></g><g clip-path="url(#247342e0df)"><g clip-path="url(#e382ccab0c)"><path fill="#fb8c00" d="M 169.433594 147.917969 C 169.402344 144.105469 169.15625 136.558594 179.875 136.957031 C 190.589844 137.355469 189.503906 140.589844 195.359375 140.433594 C 204.582031 140.191406 196.878906 147.917969 193.273438 146.097656 C 188.671875 143.78125 189.113281 141.328125 182.441406 141.628906 C 175.691406 141.929688 172.804688 147.21875 172.707031 150.007812 C 172.601562 152.785156 169.457031 150.597656 169.433594 147.917969 Z M 169.433594 147.917969 " fill-opacity="1" fill-rule="nonzero"/></g></g><g clip-path="url(#63af9868b5)"><g clip-path="url(#96538ca6b7)"><path fill="#fb8c00" d="M 153.199219 141.847656 C 158.570312 141.386719 160.902344 144.636719 161.648438 146.382812 C 162.398438 148.128906 163.746094 146.308594 162.324219 144.117188 C 160.902344 141.921875 158.707031 135.761719 149.453125 140.5 C 145.246094 142.652344 146.164062 145.316406 146.539062 147.136719 C 146.910156 148.957031 145.929688 147.355469 147.820312 144.480469 C 148.933594 142.808594 151.242188 142.019531 153.199219 141.847656 Z M 153.199219 141.847656 " fill-opacity="1" fill-rule="nonzero"/></g></g></svg>