<svg xmlns="http://www.w3.org/2000/svg" xmlns:xlink="http://www.w3.org/1999/xlink" width="217" zoomAndPan="magnify" viewBox="0 0 162.75 34.499999" height="46" preserveAspectRatio="xMidYMid meet" version="1.0"><defs><g/><clipPath id="f23b1c91f0"><path d="M 1.039062 0 L 161.464844 0 L 161.464844 34.007812 L 1.039062 34.007812 Z M 1.039062 0 " clip-rule="nonzero"/></clipPath><clipPath id="be56c0778f"><path d="M 48.503906 13.042969 L 57.699219 13.042969 L 57.699219 22.238281 L 48.503906 22.238281 Z M 48.503906 13.042969 " clip-rule="nonzero"/></clipPath><clipPath id="fd7f7e1c64"><path d="M 53.101562 13.042969 C 50.5625 13.042969 48.503906 15.101562 48.503906 17.640625 C 48.503906 20.179688 50.5625 22.238281 53.101562 22.238281 C 55.640625 22.238281 57.699219 20.179688 57.699219 17.640625 C 57.699219 15.101562 55.640625 13.042969 53.101562 13.042969 Z M 53.101562 13.042969 " clip-rule="nonzero"/></clipPath><clipPath id="3ac9226912"><path d="M 55.222656 13.582031 L 56.835938 13.582031 L 56.835938 15.199219 L 55.222656 15.199219 Z M 55.222656 13.582031 " clip-rule="nonzero"/></clipPath><clipPath id="fb94d5c75f"><path d="M 56.03125 13.582031 C 55.582031 13.582031 55.222656 13.945312 55.222656 14.390625 C 55.222656 14.835938 55.582031 15.199219 56.03125 15.199219 C 56.476562 15.199219 56.835938 14.835938 56.835938 14.390625 C 56.835938 13.945312 56.476562 13.582031 56.03125 13.582031 Z M 56.03125 13.582031 " clip-rule="nonzero"/></clipPath><clipPath id="bd0fc2a613"><path d="M 56.03125 20.160156 L 56.835938 20.160156 L 56.835938 20.96875 L 56.03125 20.96875 Z M 56.03125 20.160156 " clip-rule="nonzero"/></clipPath><clipPath id="b6c400a3ee"><path d="M 56.433594 20.160156 C 56.210938 20.160156 56.03125 20.34375 56.03125 20.566406 C 56.03125 20.789062 56.210938 20.96875 56.433594 20.96875 C 56.65625 20.96875 56.835938 20.789062 56.835938 20.566406 C 56.835938 20.34375 56.65625 20.160156 56.433594 20.160156 Z M 56.433594 20.160156 " clip-rule="nonzero"/></clipPath><clipPath id="37c444a880"><path d="M 48.855469 16.878906 L 51.8125 16.878906 L 51.8125 18.394531 L 48.855469 18.394531 Z M 48.855469 16.878906 " clip-rule="nonzero"/></clipPath><clipPath id="191bfc2b13"><path d="M 49.609375 16.878906 L 51.054688 16.878906 C 51.472656 16.878906 51.808594 17.21875 51.808594 17.636719 C 51.808594 18.054688 51.472656 18.394531 51.054688 18.394531 L 49.609375 18.394531 C 49.191406 18.394531 48.855469 18.054688 48.855469 17.636719 C 48.855469 17.21875 49.191406 16.878906 49.609375 16.878906 Z M 49.609375 16.878906 " clip-rule="nonzero"/></clipPath><clipPath id="d178fc5977"><path d="M 48.539062 20.160156 L 52.46875 20.160156 L 52.46875 22.238281 L 48.539062 22.238281 Z M 48.539062 20.160156 " clip-rule="nonzero"/></clipPath><clipPath id="3c1ebb32c4"><path d="M 49.574219 20.160156 L 51.425781 20.160156 C 52 20.160156 52.464844 20.625 52.464844 21.199219 C 52.464844 21.773438 52 22.238281 51.425781 22.238281 L 49.574219 22.238281 C 49 22.238281 48.539062 21.773438 48.539062 21.199219 C 48.539062 20.625 49 20.160156 49.574219 20.160156 Z M 49.574219 20.160156 " clip-rule="nonzero"/></clipPath><clipPath id="934474a526"><path d="M 48.363281 16.644531 L 50.390625 16.644531 L 50.390625 23.050781 L 48.363281 23.050781 Z M 48.363281 16.644531 " clip-rule="nonzero"/></clipPath><clipPath id="0337d3746d"><path d="M 50.28125 14.109375 L 56.195312 14.109375 L 56.195312 20.765625 L 50.28125 20.765625 Z M 50.28125 14.109375 " clip-rule="nonzero"/></clipPath><clipPath id="9cb6feb36d"><path d="M 50.28125 14.109375 L 56 14.109375 L 56 17 L 50.28125 17 Z M 50.28125 14.109375 " clip-rule="nonzero"/></clipPath><clipPath id="8444b0ef9c"><path d="M 50.28125 19 L 56 19 L 56 20 L 50.28125 20 Z M 50.28125 19 " clip-rule="nonzero"/></clipPath><clipPath id="3de5a7bbd1"><path d="M 50.28125 19 L 56 19 L 56 20.765625 L 50.28125 20.765625 Z M 50.28125 19 " clip-rule="nonzero"/></clipPath></defs><g clip-path="url(#f23b1c91f0)"><path fill="#ffffff" d="M 1.039062 0 L 161.464844 0 L 161.464844 34.007812 L 1.039062 34.007812 Z M 1.039062 0 " fill-opacity="1" fill-rule="nonzero"/><path fill="#ffffff" d="M 1.039062 0 L 161.464844 0 L 161.464844 34.007812 L 1.039062 34.007812 Z M 1.039062 0 " fill-opacity="1" fill-rule="nonzero"/></g><g clip-path="url(#be56c0778f)"><g clip-path="url(#fd7f7e1c64)"><path fill="#000000" d="M 48.503906 13.042969 L 57.699219 13.042969 L 57.699219 22.238281 L 48.503906 22.238281 Z M 48.503906 13.042969 " fill-opacity="1" fill-rule="nonzero"/></g></g><g clip-path="url(#3ac9226912)"><g clip-path="url(#fb94d5c75f)"><path fill="#ffffff" d="M 55.222656 13.582031 L 56.835938 13.582031 L 56.835938 15.199219 L 55.222656 15.199219 Z M 55.222656 13.582031 " fill-opacity="1" fill-rule="nonzero"/></g></g><g clip-path="url(#bd0fc2a613)"><g clip-path="url(#b6c400a3ee)"><path fill="#ffffff" d="M 56.03125 20.160156 L 56.835938 20.160156 L 56.835938 20.96875 L 56.03125 20.96875 Z M 56.03125 20.160156 " fill-opacity="1" fill-rule="nonzero"/></g></g><g clip-path="url(#37c444a880)"><g clip-path="url(#191bfc2b13)"><path fill="#000000" d="M 48.855469 16.878906 L 51.8125 16.878906 L 51.8125 18.394531 L 48.855469 18.394531 Z M 48.855469 16.878906 " fill-opacity="1" fill-rule="nonzero"/></g></g><g clip-path="url(#d178fc5977)"><g clip-path="url(#3c1ebb32c4)"><path fill="#000000" d="M 48.539062 20.160156 L 52.460938 20.160156 L 52.460938 22.238281 L 48.539062 22.238281 Z M 48.539062 20.160156 " fill-opacity="1" fill-rule="nonzero"/></g></g><g clip-path="url(#934474a526)"><path fill="#ffffff" d="M 48.363281 16.644531 L 50.390625 16.644531 L 50.390625 23.054688 L 48.363281 23.054688 Z M 48.363281 16.644531 " fill-opacity="1" fill-rule="nonzero"/></g><g clip-path="url(#0337d3746d)"><path fill="#000000" d="M 58.285156 17.460938 C 58.285156 17.800781 58.25 18.140625 58.183594 18.472656 C 58.117188 18.804688 58.019531 19.128906 57.890625 19.441406 C 57.761719 19.757812 57.601562 20.054688 57.410156 20.339844 C 57.222656 20.621094 57.007812 20.882812 56.769531 21.121094 C 56.527344 21.363281 56.265625 21.578125 55.984375 21.765625 C 55.703125 21.953125 55.402344 22.113281 55.089844 22.242188 C 54.777344 22.375 54.453125 22.472656 54.117188 22.539062 C 53.785156 22.605469 53.449219 22.636719 53.109375 22.636719 C 52.769531 22.636719 52.433594 22.605469 52.097656 22.539062 C 51.765625 22.472656 51.441406 22.375 51.128906 22.242188 C 50.816406 22.113281 50.515625 21.953125 50.234375 21.765625 C 49.953125 21.578125 49.691406 21.363281 49.449219 21.121094 C 49.210938 20.882812 48.996094 20.621094 48.804688 20.339844 C 48.617188 20.054688 48.457031 19.757812 48.328125 19.441406 C 48.199219 19.128906 48.101562 18.804688 48.035156 18.472656 C 47.96875 18.140625 47.933594 17.800781 47.933594 17.460938 C 47.933594 17.121094 47.96875 16.785156 48.035156 16.453125 C 48.101562 16.121094 48.199219 15.796875 48.328125 15.484375 C 48.457031 15.167969 48.617188 14.871094 48.804688 14.585938 C 48.996094 14.304688 49.210938 14.042969 49.449219 13.804688 C 49.691406 13.5625 49.953125 13.347656 50.234375 13.160156 C 50.515625 12.972656 50.816406 12.8125 51.128906 12.683594 C 51.441406 12.550781 51.765625 12.453125 52.097656 12.386719 C 52.433594 12.320312 52.769531 12.289062 53.109375 12.289062 C 53.449219 12.289062 53.785156 12.320312 54.117188 12.386719 C 54.453125 12.453125 54.777344 12.550781 55.089844 12.683594 C 55.402344 12.8125 55.703125 12.972656 55.984375 13.160156 C 56.265625 13.347656 56.527344 13.5625 56.769531 13.804688 C 57.007812 14.042969 57.222656 14.304688 57.410156 14.585938 C 57.601562 14.871094 57.761719 15.167969 57.890625 15.484375 C 58.019531 15.796875 58.117188 16.121094 58.183594 16.453125 C 58.25 16.785156 58.285156 17.121094 58.285156 17.460938 Z M 58.285156 17.460938 " fill-opacity="1" fill-rule="nonzero"/></g><path fill="#ffffff" d="M 54.726562 16.800781 L 55.011719 16.800781 L 55.011719 19.351562 L 54.726562 19.351562 Z M 54.726562 16.800781 " fill-opacity="1" fill-rule="nonzero"/><path fill="#ffffff" d="M 53.574219 16.800781 L 53.871094 16.800781 L 53.871094 19.351562 L 53.574219 19.351562 Z M 53.574219 16.800781 " fill-opacity="1" fill-rule="nonzero"/><path fill="#ffffff" d="M 53.109375 15.476562 C 52.898438 15.476562 52.726562 15.648438 52.726562 15.859375 C 52.726562 16.070312 52.898438 16.242188 53.109375 16.242188 C 53.320312 16.242188 53.492188 16.070312 53.492188 15.859375 C 53.488281 15.648438 53.320312 15.476562 53.109375 15.476562 Z M 53.109375 15.476562 " fill-opacity="1" fill-rule="nonzero"/><g clip-path="url(#9cb6feb36d)"><path fill="#ffffff" d="M 53.109375 14.636719 L 50.855469 16.621094 L 55.367188 16.621094 Z M 53.109375 16.421875 C 52.796875 16.421875 52.546875 16.167969 52.546875 15.859375 C 52.546875 15.546875 52.796875 15.296875 53.109375 15.296875 C 53.417969 15.296875 53.671875 15.546875 53.671875 15.859375 C 53.671875 16.167969 53.417969 16.417969 53.109375 16.421875 Z M 53.109375 16.421875 " fill-opacity="1" fill-rule="nonzero"/></g><g clip-path="url(#8444b0ef9c)"><path fill="#ffffff" d="M 50.78125 19.53125 L 55.4375 19.53125 L 55.4375 19.792969 L 50.78125 19.792969 Z M 50.78125 19.53125 " fill-opacity="1" fill-rule="nonzero"/></g><g clip-path="url(#3de5a7bbd1)"><path fill="#ffffff" d="M 50.441406 19.972656 L 55.773438 19.972656 L 55.773438 20.28125 L 50.441406 20.28125 Z M 50.441406 19.972656 " fill-opacity="1" fill-rule="nonzero"/></g><path fill="#ffffff" d="M 51.207031 16.800781 L 51.492188 16.800781 L 51.492188 19.351562 L 51.207031 19.351562 Z M 51.207031 16.800781 " fill-opacity="1" fill-rule="nonzero"/><path fill="#ffffff" d="M 52.34375 16.800781 L 52.644531 16.800781 L 52.644531 19.351562 L 52.34375 19.351562 Z M 52.34375 16.800781 " fill-opacity="1" fill-rule="nonzero"/><g fill="#000000" fill-opacity="1"><g transform="translate(59.260849, 20.087842)"><g><path d="M 6.09375 -6.28125 L 7.578125 -6.28125 L 7.578125 0 L 6.203125 0 L 6.203125 -3.734375 L 4.484375 0 L 3.703125 0 L 2 -3.75 L 2 0 L 0.625 0 L 0.625 -6.28125 L 2.109375 -6.28125 L 4.09375 -1.9375 Z M 6.09375 -6.28125 "/></g></g></g><g fill="#000000" fill-opacity="1"><g transform="translate(66.960268, 20.087842)"><g><path d="M 3.1875 0.078125 C 2.695312 0.078125 2.253906 -0.0078125 1.859375 -0.1875 C 1.472656 -0.375 1.164062 -0.625 0.9375 -0.9375 C 0.707031 -1.257812 0.59375 -1.617188 0.59375 -2.015625 L 0.59375 -6.28125 L 1.96875 -6.28125 L 1.96875 -2.265625 C 1.96875 -1.953125 2.085938 -1.6875 2.328125 -1.46875 C 2.566406 -1.25 2.851562 -1.140625 3.1875 -1.140625 C 3.539062 -1.140625 3.832031 -1.25 4.0625 -1.46875 C 4.300781 -1.6875 4.421875 -1.953125 4.421875 -2.265625 L 4.421875 -6.28125 L 5.8125 -6.28125 L 5.8125 -2.015625 C 5.8125 -1.617188 5.695312 -1.257812 5.46875 -0.9375 C 5.238281 -0.625 4.925781 -0.375 4.53125 -0.1875 C 4.132812 -0.0078125 3.6875 0.078125 3.1875 0.078125 Z M 3.1875 0.078125 "/></g></g></g><g fill="#000000" fill-opacity="1"><g transform="translate(72.859848, 20.087842)"><g><path d="M 2.546875 0.078125 C 2.003906 0.078125 1.519531 -0.0546875 1.09375 -0.328125 C 0.675781 -0.597656 0.367188 -0.925781 0.171875 -1.3125 L 1.3125 -2.03125 C 1.425781 -1.789062 1.59375 -1.59375 1.8125 -1.4375 C 2.03125 -1.289062 2.28125 -1.21875 2.5625 -1.21875 C 2.8125 -1.21875 3.003906 -1.269531 3.140625 -1.375 C 3.273438 -1.476562 3.34375 -1.617188 3.34375 -1.796875 C 3.34375 -1.972656 3.269531 -2.113281 3.125 -2.21875 C 2.988281 -2.332031 2.8125 -2.425781 2.59375 -2.5 C 2.375 -2.582031 2.140625 -2.664062 1.890625 -2.75 C 1.640625 -2.84375 1.40625 -2.957031 1.1875 -3.09375 C 0.96875 -3.238281 0.785156 -3.421875 0.640625 -3.640625 C 0.503906 -3.867188 0.4375 -4.160156 0.4375 -4.515625 C 0.4375 -4.929688 0.535156 -5.273438 0.734375 -5.546875 C 0.929688 -5.816406 1.179688 -6.019531 1.484375 -6.15625 C 1.796875 -6.289062 2.117188 -6.359375 2.453125 -6.359375 C 2.835938 -6.359375 3.195312 -6.273438 3.53125 -6.109375 C 3.875 -5.953125 4.160156 -5.738281 4.390625 -5.46875 L 3.46875 -4.59375 C 3.3125 -4.769531 3.144531 -4.90625 2.96875 -5 C 2.800781 -5.09375 2.625 -5.140625 2.4375 -5.140625 C 2.269531 -5.140625 2.125 -5.097656 2 -5.015625 C 1.882812 -4.929688 1.828125 -4.796875 1.828125 -4.609375 C 1.828125 -4.429688 1.894531 -4.289062 2.03125 -4.1875 C 2.175781 -4.082031 2.359375 -3.988281 2.578125 -3.90625 C 2.796875 -3.832031 3.023438 -3.75 3.265625 -3.65625 C 3.515625 -3.570312 3.75 -3.457031 3.96875 -3.3125 C 4.1875 -3.164062 4.363281 -2.96875 4.5 -2.71875 C 4.644531 -2.476562 4.71875 -2.164062 4.71875 -1.78125 C 4.71875 -1.382812 4.617188 -1.046875 4.421875 -0.765625 C 4.222656 -0.492188 3.957031 -0.285156 3.625 -0.140625 C 3.300781 0.00390625 2.941406 0.078125 2.546875 0.078125 Z M 2.546875 0.078125 "/></g></g></g><g fill="#000000" fill-opacity="1"><g transform="translate(77.325839, 20.087842)"><g><path d="M 4.453125 -5.0625 L 2.046875 -5.0625 L 2.046875 -3.75 L 4.109375 -3.75 L 4.109375 -2.53125 L 2.046875 -2.53125 L 2.046875 -1.21875 L 4.453125 -1.21875 L 4.453125 0 L 0.671875 0 L 0.671875 -6.28125 L 4.453125 -6.28125 Z M 4.453125 -5.0625 "/></g></g></g><g fill="#000000" fill-opacity="1"><g transform="translate(81.708114, 20.087842)"><g><path d="M 3.1875 0.078125 C 2.695312 0.078125 2.253906 -0.0078125 1.859375 -0.1875 C 1.472656 -0.375 1.164062 -0.625 0.9375 -0.9375 C 0.707031 -1.257812 0.59375 -1.617188 0.59375 -2.015625 L 0.59375 -6.28125 L 1.96875 -6.28125 L 1.96875 -2.265625 C 1.96875 -1.953125 2.085938 -1.6875 2.328125 -1.46875 C 2.566406 -1.25 2.851562 -1.140625 3.1875 -1.140625 C 3.539062 -1.140625 3.832031 -1.25 4.0625 -1.46875 C 4.300781 -1.6875 4.421875 -1.953125 4.421875 -2.265625 L 4.421875 -6.28125 L 5.8125 -6.28125 L 5.8125 -2.015625 C 5.8125 -1.617188 5.695312 -1.257812 5.46875 -0.9375 C 5.238281 -0.625 4.925781 -0.375 4.53125 -0.1875 C 4.132812 -0.0078125 3.6875 0.078125 3.1875 0.078125 Z M 3.1875 0.078125 "/></g></g></g><g fill="#000000" fill-opacity="1"><g transform="translate(87.607694, 20.087842)"><g><path d="M 6.09375 -6.28125 L 7.578125 -6.28125 L 7.578125 0 L 6.203125 0 L 6.203125 -3.734375 L 4.484375 0 L 3.703125 0 L 2 -3.75 L 2 0 L 0.625 0 L 0.625 -6.28125 L 2.109375 -6.28125 L 4.09375 -1.9375 Z M 6.09375 -6.28125 "/></g></g></g><g fill="#000000" fill-opacity="1"><g transform="translate(60.443704, 23.631998)"><g><path d="M 1.015625 0.03125 C 0.859375 0.03125 0.71875 -0.00390625 0.59375 -0.078125 C 0.46875 -0.148438 0.367188 -0.253906 0.296875 -0.390625 C 0.222656 -0.535156 0.1875 -0.710938 0.1875 -0.921875 C 0.1875 -1.140625 0.222656 -1.316406 0.296875 -1.453125 C 0.367188 -1.597656 0.46875 -1.703125 0.59375 -1.765625 C 0.71875 -1.835938 0.859375 -1.875 1.015625 -1.875 C 1.171875 -1.875 1.3125 -1.835938 1.4375 -1.765625 C 1.5625 -1.703125 1.660156 -1.597656 1.734375 -1.453125 C 1.804688 -1.316406 1.84375 -1.140625 1.84375 -0.921875 C 1.84375 -0.710938 1.804688 -0.535156 1.734375 -0.390625 C 1.660156 -0.253906 1.5625 -0.148438 1.4375 -0.078125 C 1.3125 -0.00390625 1.171875 0.03125 1.015625 0.03125 Z M 1.015625 -0.171875 C 1.203125 -0.171875 1.347656 -0.226562 1.453125 -0.34375 C 1.554688 -0.46875 1.609375 -0.660156 1.609375 -0.921875 C 1.609375 -1.179688 1.554688 -1.367188 1.453125 -1.484375 C 1.347656 -1.609375 1.203125 -1.671875 1.015625 -1.671875 C 0.617188 -1.671875 0.421875 -1.421875 0.421875 -0.921875 C 0.421875 -0.421875 0.617188 -0.171875 1.015625 -0.171875 Z M 1.015625 -0.171875 "/></g></g></g><g fill="#000000" fill-opacity="1"><g transform="translate(62.473566, 23.631998)"><g><path d="M 0.5 0 L 0.28125 0 L 0.28125 -1.859375 L 0.546875 -1.859375 L 1.453125 -0.4375 L 1.484375 -0.4375 L 1.484375 -1.859375 L 1.6875 -1.859375 L 1.6875 0 L 1.46875 0 L 0.53125 -1.515625 L 0.5 -1.515625 Z M 0.5 0 "/></g></g></g><g fill="#000000" fill-opacity="1"><g transform="translate(64.446481, 23.631998)"><g><path d="M 0.5 -1.859375 L 0.5 -0.1875 L 1.390625 -0.1875 L 1.390625 0 L 0.28125 0 L 0.28125 -1.859375 Z M 0.5 -1.859375 "/></g></g></g><g fill="#000000" fill-opacity="1"><g transform="translate(65.913196, 23.631998)"><g><path d="M 0.5 0 L 0.28125 0 L 0.28125 -1.859375 L 0.5 -1.859375 Z M 0.5 0 "/></g></g></g><g fill="#000000" fill-opacity="1"><g transform="translate(66.69148, 23.631998)"><g><path d="M 0.5 0 L 0.28125 0 L 0.28125 -1.859375 L 0.546875 -1.859375 L 1.453125 -0.4375 L 1.484375 -0.4375 L 1.484375 -1.859375 L 1.6875 -1.859375 L 1.6875 0 L 1.46875 0 L 0.53125 -1.515625 L 0.5 -1.515625 Z M 0.5 0 "/></g></g></g><g fill="#000000" fill-opacity="1"><g transform="translate(68.664395, 23.631998)"><g><path d="M 0.5 -0.875 L 0.5 -0.1875 L 1.4375 -0.1875 L 1.4375 0 L 0.28125 0 L 0.28125 -1.859375 L 1.421875 -1.859375 L 1.421875 -1.671875 L 0.5 -1.671875 L 0.5 -1.046875 L 1.3125 -1.046875 L 1.3125 -0.875 Z M 0.5 -0.875 "/></g></g></g><g fill="#000000" fill-opacity="1"><g transform="translate(70.227288, 23.631998)"><g/></g></g><g fill="#000000" fill-opacity="1"><g transform="translate(70.862569, 23.631998)"><g><path d="M 0.28125 0 L 0.28125 -1.859375 L 0.984375 -1.859375 C 1.097656 -1.859375 1.191406 -1.835938 1.265625 -1.796875 C 1.347656 -1.765625 1.410156 -1.710938 1.453125 -1.640625 C 1.492188 -1.578125 1.515625 -1.5 1.515625 -1.40625 C 1.515625 -1.320312 1.488281 -1.25 1.4375 -1.1875 C 1.394531 -1.125 1.335938 -1.070312 1.265625 -1.03125 L 1.265625 -1 C 1.378906 -0.96875 1.46875 -0.910156 1.53125 -0.828125 C 1.601562 -0.753906 1.640625 -0.65625 1.640625 -0.53125 C 1.640625 -0.363281 1.585938 -0.234375 1.484375 -0.140625 C 1.378906 -0.046875 1.226562 0 1.03125 0 Z M 0.96875 -1.078125 C 1.070312 -1.078125 1.148438 -1.101562 1.203125 -1.15625 C 1.265625 -1.207031 1.296875 -1.28125 1.296875 -1.375 C 1.296875 -1.476562 1.265625 -1.550781 1.203125 -1.59375 C 1.148438 -1.644531 1.070312 -1.671875 0.96875 -1.671875 L 0.5 -1.671875 L 0.5 -1.078125 Z M 1.015625 -0.1875 C 1.273438 -0.1875 1.40625 -0.300781 1.40625 -0.53125 C 1.40625 -0.769531 1.273438 -0.890625 1.015625 -0.890625 L 0.5 -0.890625 L 0.5 -0.1875 Z M 1.015625 -0.1875 "/></g></g></g><g fill="#000000" fill-opacity="1"><g transform="translate(72.643129, 23.631998)"><g><path d="M 1.015625 0.03125 C 0.859375 0.03125 0.71875 -0.00390625 0.59375 -0.078125 C 0.46875 -0.148438 0.367188 -0.253906 0.296875 -0.390625 C 0.222656 -0.535156 0.1875 -0.710938 0.1875 -0.921875 C 0.1875 -1.140625 0.222656 -1.316406 0.296875 -1.453125 C 0.367188 -1.597656 0.46875 -1.703125 0.59375 -1.765625 C 0.71875 -1.835938 0.859375 -1.875 1.015625 -1.875 C 1.171875 -1.875 1.3125 -1.835938 1.4375 -1.765625 C 1.5625 -1.703125 1.660156 -1.597656 1.734375 -1.453125 C 1.804688 -1.316406 1.84375 -1.140625 1.84375 -0.921875 C 1.84375 -0.710938 1.804688 -0.535156 1.734375 -0.390625 C 1.660156 -0.253906 1.5625 -0.148438 1.4375 -0.078125 C 1.3125 -0.00390625 1.171875 0.03125 1.015625 0.03125 Z M 1.015625 -0.171875 C 1.203125 -0.171875 1.347656 -0.226562 1.453125 -0.34375 C 1.554688 -0.46875 1.609375 -0.660156 1.609375 -0.921875 C 1.609375 -1.179688 1.554688 -1.367188 1.453125 -1.484375 C 1.347656 -1.609375 1.203125 -1.671875 1.015625 -1.671875 C 0.617188 -1.671875 0.421875 -1.421875 0.421875 -0.921875 C 0.421875 -0.421875 0.617188 -0.171875 1.015625 -0.171875 Z M 1.015625 -0.171875 "/></g></g></g><g fill="#000000" fill-opacity="1"><g transform="translate(74.67299, 23.631998)"><g><path d="M 1.015625 0.03125 C 0.859375 0.03125 0.71875 -0.00390625 0.59375 -0.078125 C 0.46875 -0.148438 0.367188 -0.253906 0.296875 -0.390625 C 0.222656 -0.535156 0.1875 -0.710938 0.1875 -0.921875 C 0.1875 -1.140625 0.222656 -1.316406 0.296875 -1.453125 C 0.367188 -1.597656 0.46875 -1.703125 0.59375 -1.765625 C 0.71875 -1.835938 0.859375 -1.875 1.015625 -1.875 C 1.171875 -1.875 1.3125 -1.835938 1.4375 -1.765625 C 1.5625 -1.703125 1.660156 -1.597656 1.734375 -1.453125 C 1.804688 -1.316406 1.84375 -1.140625 1.84375 -0.921875 C 1.84375 -0.710938 1.804688 -0.535156 1.734375 -0.390625 C 1.660156 -0.253906 1.5625 -0.148438 1.4375 -0.078125 C 1.3125 -0.00390625 1.171875 0.03125 1.015625 0.03125 Z M 1.015625 -0.171875 C 1.203125 -0.171875 1.347656 -0.226562 1.453125 -0.34375 C 1.554688 -0.46875 1.609375 -0.660156 1.609375 -0.921875 C 1.609375 -1.179688 1.554688 -1.367188 1.453125 -1.484375 C 1.347656 -1.609375 1.203125 -1.671875 1.015625 -1.671875 C 0.617188 -1.671875 0.421875 -1.421875 0.421875 -0.921875 C 0.421875 -0.421875 0.617188 -0.171875 1.015625 -0.171875 Z M 1.015625 -0.171875 "/></g></g></g><g fill="#000000" fill-opacity="1"><g transform="translate(76.702852, 23.631998)"><g><path d="M 0.28125 0 L 0.28125 -1.859375 L 0.5 -1.859375 L 0.5 -1.046875 L 0.53125 -1.046875 L 1.296875 -1.859375 L 1.53125 -1.859375 L 1.53125 -1.8125 L 0.734375 -0.953125 L 1.59375 -0.03125 L 1.59375 0 L 1.34375 0 L 0.53125 -0.859375 L 0.5 -0.859375 L 0.5 0 Z M 0.28125 0 "/></g></g></g><g fill="#000000" fill-opacity="1"><g transform="translate(78.335347, 23.631998)"><g><path d="M 0.5 0 L 0.28125 0 L 0.28125 -1.859375 L 0.5 -1.859375 Z M 0.5 0 "/></g></g></g><g fill="#000000" fill-opacity="1"><g transform="translate(79.11363, 23.631998)"><g><path d="M 0.5 0 L 0.28125 0 L 0.28125 -1.859375 L 0.546875 -1.859375 L 1.453125 -0.4375 L 1.484375 -0.4375 L 1.484375 -1.859375 L 1.6875 -1.859375 L 1.6875 0 L 1.46875 0 L 0.53125 -1.515625 L 0.5 -1.515625 Z M 0.5 0 "/></g></g></g><g fill="#000000" fill-opacity="1"><g transform="translate(81.086546, 23.631998)"><g><path d="M 0.96875 0.03125 C 0.8125 0.03125 0.675781 -0.00390625 0.5625 -0.078125 C 0.445312 -0.148438 0.351562 -0.253906 0.28125 -0.390625 C 0.21875 -0.535156 0.1875 -0.710938 0.1875 -0.921875 C 0.1875 -1.128906 0.222656 -1.304688 0.296875 -1.453125 C 0.367188 -1.597656 0.46875 -1.703125 0.59375 -1.765625 C 0.71875 -1.835938 0.863281 -1.875 1.03125 -1.875 C 1.207031 -1.875 1.351562 -1.84375 1.46875 -1.78125 C 1.582031 -1.71875 1.660156 -1.625 1.703125 -1.5 L 1.5625 -1.40625 L 1.53125 -1.40625 C 1.476562 -1.507812 1.410156 -1.582031 1.328125 -1.625 C 1.253906 -1.664062 1.15625 -1.6875 1.03125 -1.6875 C 0.625 -1.6875 0.421875 -1.429688 0.421875 -0.921875 C 0.421875 -0.660156 0.46875 -0.46875 0.5625 -0.34375 C 0.664062 -0.226562 0.8125 -0.171875 1 -0.171875 C 1.164062 -0.171875 1.289062 -0.207031 1.375 -0.28125 C 1.457031 -0.363281 1.5 -0.488281 1.5 -0.65625 L 1.5 -0.8125 L 0.984375 -0.8125 L 0.984375 -0.984375 L 1.71875 -0.984375 L 1.71875 0 L 1.515625 0 L 1.515625 -0.25 L 1.484375 -0.25 C 1.441406 -0.15625 1.375 -0.0820312 1.28125 -0.03125 C 1.195312 0.0078125 1.09375 0.03125 0.96875 0.03125 Z M 0.96875 0.03125 "/></g></g></g><g fill="#000000" fill-opacity="1"><g transform="translate(83.010105, 23.631998)"><g/></g></g><g fill="#000000" fill-opacity="1"><g transform="translate(83.645386, 23.631998)"><g><path d="M 0.8125 0.03125 C 0.695312 0.03125 0.59375 0.015625 0.5 -0.015625 C 0.40625 -0.046875 0.328125 -0.0859375 0.265625 -0.140625 C 0.203125 -0.191406 0.15625 -0.25 0.125 -0.3125 L 0.25 -0.453125 L 0.28125 -0.453125 C 0.394531 -0.265625 0.570312 -0.171875 0.8125 -0.171875 C 0.945312 -0.171875 1.046875 -0.195312 1.109375 -0.25 C 1.179688 -0.3125 1.21875 -0.394531 1.21875 -0.5 C 1.21875 -0.5625 1.207031 -0.613281 1.1875 -0.65625 C 1.164062 -0.695312 1.128906 -0.734375 1.078125 -0.765625 C 1.023438 -0.796875 0.957031 -0.820312 0.875 -0.84375 L 0.65625 -0.890625 C 0.488281 -0.929688 0.367188 -0.992188 0.296875 -1.078125 C 0.222656 -1.160156 0.1875 -1.269531 0.1875 -1.40625 C 0.1875 -1.5 0.207031 -1.578125 0.25 -1.640625 C 0.300781 -1.710938 0.367188 -1.769531 0.453125 -1.8125 C 0.546875 -1.851562 0.65625 -1.875 0.78125 -1.875 C 0.925781 -1.875 1.046875 -1.851562 1.140625 -1.8125 C 1.234375 -1.78125 1.3125 -1.722656 1.375 -1.640625 L 1.265625 -1.5 L 1.234375 -1.5 C 1.179688 -1.5625 1.117188 -1.609375 1.046875 -1.640625 C 0.972656 -1.671875 0.882812 -1.6875 0.78125 -1.6875 C 0.65625 -1.6875 0.554688 -1.660156 0.484375 -1.609375 C 0.421875 -1.554688 0.390625 -1.488281 0.390625 -1.40625 C 0.390625 -1.320312 0.414062 -1.253906 0.46875 -1.203125 C 0.519531 -1.160156 0.601562 -1.125 0.71875 -1.09375 L 0.9375 -1.046875 C 1.113281 -0.992188 1.238281 -0.925781 1.3125 -0.84375 C 1.394531 -0.757812 1.4375 -0.648438 1.4375 -0.515625 C 1.4375 -0.410156 1.410156 -0.316406 1.359375 -0.234375 C 1.316406 -0.148438 1.25 -0.0820312 1.15625 -0.03125 C 1.0625 0.0078125 0.945312 0.03125 0.8125 0.03125 Z M 0.8125 0.03125 "/></g></g></g><g fill="#000000" fill-opacity="1"><g transform="translate(85.231059, 23.631998)"><g><path d="M 0.90625 0 L 0.6875 0 L 0.6875 -0.734375 L 0.046875 -1.859375 L 0.28125 -1.859375 L 0.78125 -0.984375 L 0.8125 -0.984375 L 1.3125 -1.859375 L 1.546875 -1.859375 L 0.90625 -0.734375 Z M 0.90625 0 "/></g></g></g><g fill="#000000" fill-opacity="1"><g transform="translate(86.821793, 23.631998)"><g><path d="M 0.8125 0.03125 C 0.695312 0.03125 0.59375 0.015625 0.5 -0.015625 C 0.40625 -0.046875 0.328125 -0.0859375 0.265625 -0.140625 C 0.203125 -0.191406 0.15625 -0.25 0.125 -0.3125 L 0.25 -0.453125 L 0.28125 -0.453125 C 0.394531 -0.265625 0.570312 -0.171875 0.8125 -0.171875 C 0.945312 -0.171875 1.046875 -0.195312 1.109375 -0.25 C 1.179688 -0.3125 1.21875 -0.394531 1.21875 -0.5 C 1.21875 -0.5625 1.207031 -0.613281 1.1875 -0.65625 C 1.164062 -0.695312 1.128906 -0.734375 1.078125 -0.765625 C 1.023438 -0.796875 0.957031 -0.820312 0.875 -0.84375 L 0.65625 -0.890625 C 0.488281 -0.929688 0.367188 -0.992188 0.296875 -1.078125 C 0.222656 -1.160156 0.1875 -1.269531 0.1875 -1.40625 C 0.1875 -1.5 0.207031 -1.578125 0.25 -1.640625 C 0.300781 -1.710938 0.367188 -1.769531 0.453125 -1.8125 C 0.546875 -1.851562 0.65625 -1.875 0.78125 -1.875 C 0.925781 -1.875 1.046875 -1.851562 1.140625 -1.8125 C 1.234375 -1.78125 1.3125 -1.722656 1.375 -1.640625 L 1.265625 -1.5 L 1.234375 -1.5 C 1.179688 -1.5625 1.117188 -1.609375 1.046875 -1.640625 C 0.972656 -1.671875 0.882812 -1.6875 0.78125 -1.6875 C 0.65625 -1.6875 0.554688 -1.660156 0.484375 -1.609375 C 0.421875 -1.554688 0.390625 -1.488281 0.390625 -1.40625 C 0.390625 -1.320312 0.414062 -1.253906 0.46875 -1.203125 C 0.519531 -1.160156 0.601562 -1.125 0.71875 -1.09375 L 0.9375 -1.046875 C 1.113281 -0.992188 1.238281 -0.925781 1.3125 -0.84375 C 1.394531 -0.757812 1.4375 -0.648438 1.4375 -0.515625 C 1.4375 -0.410156 1.410156 -0.316406 1.359375 -0.234375 C 1.316406 -0.148438 1.25 -0.0820312 1.15625 -0.03125 C 1.0625 0.0078125 0.945312 0.03125 0.8125 0.03125 Z M 0.8125 0.03125 "/></g></g></g><g fill="#000000" fill-opacity="1"><g transform="translate(88.407465, 23.631998)"><g><path d="M 1.4375 -1.859375 L 1.4375 -1.671875 L 0.859375 -1.671875 L 0.859375 0 L 0.65625 0 L 0.65625 -1.671875 L 0.0625 -1.671875 L 0.0625 -1.859375 Z M 1.4375 -1.859375 "/></g></g></g><g fill="#000000" fill-opacity="1"><g transform="translate(89.918472, 23.631998)"><g><path d="M 0.5 -0.875 L 0.5 -0.1875 L 1.4375 -0.1875 L 1.4375 0 L 0.28125 0 L 0.28125 -1.859375 L 1.421875 -1.859375 L 1.421875 -1.671875 L 0.5 -1.671875 L 0.5 -1.046875 L 1.3125 -1.046875 L 1.3125 -0.875 Z M 0.5 -0.875 "/></g></g></g><g fill="#000000" fill-opacity="1"><g transform="translate(91.481366, 23.631998)"><g><path d="M 0.484375 0 L 0.28125 0 L 0.28125 -1.859375 L 0.609375 -1.859375 L 1.15625 -0.28125 L 1.1875 -0.28125 L 1.75 -1.859375 L 2.0625 -1.859375 L 2.0625 0 L 1.859375 0 L 1.859375 -1.515625 L 1.828125 -1.515625 L 1.28125 0 L 1.0625 0 L 0.515625 -1.515625 L 0.484375 -1.515625 Z M 0.484375 0 "/></g></g></g></svg>